<svg width="64" height="64" viewBox="0 0 64 64" fill="none" xmlns="http://www.w3.org/2000/svg">
  <rect width="64" height="64" rx="8" fill="#fef7cd"/>
  <rect x="12" y="25" width="40" height="30" rx="4" fill="#fbbf24" stroke="#f59e0b" stroke-width="2"/>
  <polygon points="32,25 12,35 52,35" fill="#dc2626"/>
  <rect x="20" y="35" width="6" height="15" rx="1" fill="#7c2d12"/>
  <rect x="30" y="35" width="6" height="15" rx="1" fill="#7c2d12"/>
  <rect x="40" y="35" width="6" height="15" rx="1" fill="#7c2d12"/>
  <circle cx="23" cy="42" r="2" fill="#451a03"/>
  <circle cx="33" cy="42" r="2" fill="#451a03"/>
  <circle cx="43" cy="42" r="2" fill="#451a03"/>
  <rect x="28" y="45" width="8" height="8" rx="1" fill="#451a03"/>
  <polygon points="32,15 28,20 36,20" fill="#fbbf24"/>
  <rect x="30" y="18" width="4" height="7" fill="#7c2d12"/>
  <circle cx="18" cy="18" r="3" fill="#22d3ee"/>
  <circle cx="46" cy="20" r="2" fill="#a7f3d0"/>
</svg>