<svg width="64" height="64" viewBox="0 0 64 64" fill="none" xmlns="http://www.w3.org/2000/svg">
  <rect width="64" height="64" rx="8" fill="#f8fafc"/>
  <rect x="8" y="20" width="12" height="35" fill="#64748b"/>
  <rect x="24" y="15" width="12" height="40" fill="#475569"/>
  <rect x="40" y="25" width="12" height="30" fill="#64748b"/>
  <rect x="10" y="25" width="2" height="3" fill="#fbbf24"/>
  <rect x="14" y="25" width="2" height="3" fill="#fbbf24"/>
  <rect x="10" y="30" width="2" height="3" fill="#fbbf24"/>
  <rect x="14" y="35" width="2" height="3" fill="#fbbf24"/>
  <rect x="26" y="20" width="2" height="3" fill="#fbbf24"/>
  <rect x="30" y="20" width="2" height="3" fill="#fbbf24"/>
  <rect x="26" y="25" width="2" height="3" fill="#fbbf24"/>
  <rect x="30" y="30" width="2" height="3" fill="#fbbf24"/>
  <rect x="42" y="30" width="2" height="3" fill="#fbbf24"/>
  <rect x="46" y="30" width="2" height="3" fill="#fbbf24"/>
  <rect x="42" y="35" width="2" height="3" fill="#fbbf24"/>
  <rect x="0" y="55" width="64" height="9" fill="#374151"/>
</svg>